<?xml version="1.0" encoding="UTF-8"?>
<svg xmlns="http://www.w3.org/2000/svg" xmlns:xlink="http://www.w3.org/1999/xlink" width="368.5pt" height="368.5pt" viewBox="0 0 368.5 368.5" version="1.1">
<g id="surface1">
<path style=" stroke:none;fill-rule:evenodd;fill:rgb(0%,0.784302%,0%);fill-opacity:1;" d="M 184.335938 -0.0078125 C 286.097656 -0.0078125 368.589844 82.484375 368.589844 184.246094 C 368.589844 286.003906 286.097656 368.496094 184.335938 368.496094 C 82.578125 368.496094 0.0859375 286.003906 0.0859375 184.246094 C 0.0859375 82.484375 82.578125 -0.0078125 184.335938 -0.0078125 Z M 267.710938 39.167969 L 242.402344 73.058594 C 227.332031 65.171875 210.460938 60.253906 192.566406 59.09375 C 189.648438 56.796875 186.058594 55.445313 182.179688 55.445313 C 178.082031 55.445313 174.3125 56.953125 171.308594 59.488281 C 153.5 61.328125 136.796875 66.890625 121.992188 75.390625 L 96.765625 41.675781 C 122.238281 25.996094 152.230469 16.945313 184.335938 16.945313 C 214.695313 16.945313 243.167969 25.03125 267.710938 39.167969 Z M 246.632813 75.371094 L 271.832031 41.632813 C 319.707031 71.066406 351.636719 123.925781 351.636719 184.246094 C 351.636719 270.914063 285.738281 342.1875 201.3125 350.695313 C 202.5625 348.015625 203.261719 345.03125 203.261719 341.878906 C 203.261719 337.761719 202.070313 333.925781 200.007813 330.691406 C 201.808594 329.671875 203.023438 327.742188 203.023438 325.523438 C 203.023438 322.304688 200.457031 319.683594 197.253906 319.59375 L 197.253906 309.015625 C 260.457031 302.546875 309.765625 249.15625 309.765625 184.246094 C 309.765625 137.648438 284.351563 96.996094 246.632813 75.371094 Z M 117.878906 77.859375 L 92.726563 44.246094 C 47.144531 74.136719 17.035156 125.671875 17.035156 184.246094 C 17.035156 269.515625 80.828125 339.878906 163.289063 350.230469 C 162.171875 347.675781 161.546875 344.847656 161.546875 341.878906 C 161.546875 337.839844 162.695313 334.070313 164.683594 330.878906 C 162.6875 329.921875 161.308594 327.886719 161.308594 325.523438 C 161.308594 322.292969 163.890625 319.667969 167.105469 319.59375 L 167.105469 308.488281 C 105.988281 300.089844 58.910156 247.667969 58.910156 184.246094 C 58.910156 139.382813 82.464844 100.03125 117.878906 77.859375 Z M 190.6875 107.695313 L 198.414063 110.023438 C 197.894531 112.1875 197.078125 114 195.957031 115.445313 C 194.84375 116.898438 193.460938 117.996094 191.804688 118.730469 C 190.152344 119.46875 188.046875 119.839844 185.492188 119.839844 C 182.386719 119.839844 179.855469 119.386719 177.886719 118.492188 C 175.921875 117.589844 174.230469 116.003906 172.800781 113.742188 C 171.375 111.476563 170.660156 108.570313 170.660156 105.039063 C 170.660156 100.328125 171.914063 96.703125 174.421875 94.167969 C 176.9375 91.640625 180.488281 90.371094 185.082031 90.371094 C 188.671875 90.371094 191.5 91.097656 193.554688 92.550781 C 195.605469 94.003906 197.140625 96.234375 198.136719 99.246094 L 190.371094 100.964844 C 190.097656 100.101563 189.8125 99.472656 189.515625 99.074219 C 189.015625 98.402344 188.410156 97.886719 187.703125 97.527344 C 186.984375 97.160156 186.1875 96.984375 185.304688 96.984375 C 183.300781 96.984375 181.769531 97.785156 180.707031 99.386719 C 179.902344 100.574219 179.5 102.445313 179.5 104.988281 C 179.5 108.144531 179.976563 110.300781 180.9375 111.476563 C 181.902344 112.644531 183.25 113.230469 184.988281 113.230469 C 186.671875 113.230469 187.949219 112.757813 188.808594 111.808594 C 189.671875 110.867188 190.296875 109.492188 190.6875 107.695313 Z M 92.808594 174.3125 L 101.035156 174.3125 L 111.726563 190.054688 L 111.726563 174.3125 L 120.046875 174.3125 L 120.046875 202.824219 L 111.726563 202.824219 L 101.09375 187.167969 L 101.09375 202.824219 L 92.808594 202.824219 Z M 134.140625 174.3125 L 147.234375 174.3125 C 149.808594 174.3125 151.902344 174.664063 153.488281 175.363281 C 155.074219 176.0625 156.390625 177.066406 157.429688 178.375 C 158.46875 179.6875 159.210938 181.210938 159.679688 182.949219 C 160.144531 184.6875 160.382813 186.523438 160.382813 188.46875 C 160.382813 191.515625 160.035156 193.878906 159.339844 195.558594 C 158.648438 197.234375 157.6875 198.644531 156.453125 199.777344 C 155.21875 200.914063 153.898438 201.671875 152.484375 202.046875 C 150.554688 202.566406 148.800781 202.824219 147.234375 202.824219 L 134.140625 202.824219 Z M 142.941406 180.765625 L 142.941406 196.332031 L 145.105469 196.332031 C 146.949219 196.332031 148.265625 196.132813 149.046875 195.722656 C 149.824219 195.316406 150.433594 194.601563 150.878906 193.585938 C 151.324219 192.566406 151.542969 190.917969 151.542969 188.636719 C 151.542969 185.617188 151.050781 183.550781 150.0625 182.4375 C 149.074219 181.320313 147.433594 180.765625 145.144531 180.765625 Z M 171.28125 193.394531 L 179.644531 192.871094 C 179.820313 194.222656 180.195313 195.261719 180.75 195.960938 C 181.660156 197.109375 182.953125 197.6875 184.640625 197.6875 C 185.894531 197.6875 186.863281 197.390625 187.539063 196.804688 C 188.222656 196.214844 188.5625 195.53125 188.5625 194.753906 C 188.5625 194.019531 188.242188 193.351563 187.601563 192.769531 C 186.957031 192.1875 185.453125 191.640625 183.101563 191.117188 C 179.238281 190.257813 176.492188 189.09375 174.84375 187.660156 C 173.191406 186.222656 172.355469 184.394531 172.355469 182.164063 C 172.355469 180.703125 172.785156 179.324219 173.628906 178.023438 C 174.480469 176.71875 175.753906 175.691406 177.460938 174.949219 C 179.164063 174.207031 181.5 173.835938 184.46875 173.835938 C 188.113281 173.835938 190.886719 174.515625 192.796875 175.871094 C 194.707031 177.226563 195.84375 179.382813 196.207031 182.34375 L 187.925781 182.835938 C 187.707031 181.539063 187.238281 180.597656 186.539063 180.015625 C 185.828125 179.425781 184.851563 179.132813 183.613281 179.132813 C 182.589844 179.132813 181.8125 179.351563 181.296875 179.78125 C 180.777344 180.214844 180.519531 180.746094 180.519531 181.367188 C 180.519531 181.820313 180.738281 182.21875 181.148438 182.589844 C 181.558594 182.960938 182.539063 183.308594 184.089844 183.636719 C 187.9375 184.457031 190.695313 185.3125 192.351563 186.160156 C 194.015625 187.007813 195.234375 188.058594 195.988281 189.320313 C 196.742188 190.574219 197.125 191.980469 197.125 193.539063 C 197.125 195.363281 196.621094 197.054688 195.609375 198.597656 C 194.601563 200.136719 193.1875 201.3125 191.371094 202.109375 C 189.558594 202.902344 187.273438 203.300781 184.515625 203.300781 C 179.667969 203.300781 176.3125 202.367188 174.445313 200.5 C 172.582031 198.636719 171.527344 196.269531 171.28125 193.394531 Z M 205.355469 174.3125 L 216.976563 174.3125 L 221.402344 191.660156 L 225.84375 174.3125 L 237.410156 174.3125 L 237.410156 202.824219 L 230.203125 202.824219 L 230.203125 181.089844 L 224.640625 202.824219 L 218.109375 202.824219 L 212.5625 181.089844 L 212.5625 202.824219 L 205.355469 202.824219 Z M 245.757813 174.3125 L 258.851563 174.3125 C 261.425781 174.3125 263.515625 174.664063 265.101563 175.363281 C 266.6875 176.066406 268.003906 177.066406 269.042969 178.375 C 270.078125 179.6875 270.828125 181.207031 271.292969 182.949219 C 271.765625 184.6875 271.996094 186.523438 271.996094 188.46875 C 271.996094 191.515625 271.652344 193.878906 270.957031 195.558594 C 270.265625 197.238281 269.304688 198.644531 268.070313 199.777344 C 266.835938 200.914063 265.515625 201.671875 264.101563 202.046875 C 262.167969 202.566406 260.417969 202.824219 258.851563 202.824219 L 245.757813 202.824219 Z M 254.554688 180.765625 L 254.554688 196.332031 L 256.71875 196.332031 C 258.566406 196.332031 259.878906 196.128906 260.664063 195.722656 C 261.4375 195.3125 262.050781 194.601563 262.492188 193.585938 C 262.9375 192.5625 263.15625 190.917969 263.15625 188.636719 C 263.15625 185.617188 262.667969 183.550781 261.679688 182.4375 C 260.6875 181.320313 259.050781 180.765625 256.761719 180.765625 Z M 171.289063 154.140625 L 179.652344 153.617188 C 179.832031 154.972656 180.203125 156.007813 180.761719 156.710938 C 181.667969 157.859375 182.964844 158.4375 184.648438 158.4375 C 185.902344 158.4375 186.871094 158.144531 187.550781 157.554688 C 188.234375 156.960938 188.570313 156.277344 188.570313 155.503906 C 188.570313 154.765625 188.253906 154.101563 187.609375 153.519531 C 186.964844 152.933594 185.464844 152.390625 183.109375 151.867188 C 179.246094 151.003906 176.5 149.847656 174.851563 148.40625 C 173.195313 146.972656 172.363281 145.144531 172.363281 142.914063 C 172.363281 141.453125 172.789063 140.070313 173.636719 138.769531 C 174.488281 137.464844 175.761719 136.441406 177.46875 135.699219 C 179.171875 134.957031 181.507813 134.582031 184.476563 134.582031 C 188.121094 134.582031 190.894531 135.261719 192.804688 136.621094 C 194.71875 137.976563 195.851563 140.132813 196.21875 143.089844 L 187.933594 143.582031 C 187.714844 142.289063 187.25 141.347656 186.546875 140.761719 C 185.835938 140.171875 184.863281 139.878906 183.621094 139.878906 C 182.597656 139.878906 181.820313 140.097656 181.304688 140.53125 C 180.785156 140.960938 180.527344 141.492188 180.527344 142.117188 C 180.527344 142.566406 180.738281 142.972656 181.15625 143.335938 C 181.5625 143.714844 182.546875 144.0625 184.097656 144.386719 C 187.949219 145.214844 190.703125 146.058594 192.359375 146.90625 C 194.027344 147.757813 195.242188 148.804688 195.996094 150.066406 C 196.753906 151.320313 197.132813 152.726563 197.132813 154.289063 C 197.132813 156.113281 196.628906 157.796875 195.621094 159.34375 C 194.605469 160.886719 193.195313 162.058594 191.378906 162.855469 C 189.566406 163.652344 187.285156 164.050781 184.523438 164.050781 C 179.679688 164.050781 176.320313 163.113281 174.453125 161.25 C 172.589844 159.386719 171.535156 157.015625 171.289063 154.140625 Z M 168.308594 219.898438 L 179.929688 219.898438 L 184.355469 237.246094 L 188.796875 219.898438 L 200.363281 219.898438 L 200.363281 248.410156 L 193.15625 248.410156 L 193.15625 226.675781 L 187.59375 248.410156 L 181.066406 248.410156 L 175.515625 226.675781 L 175.515625 248.410156 L 168.308594 248.410156 Z M 173.902344 262.117188 L 182.699219 262.117188 L 182.699219 283.621094 L 196.480469 283.621094 L 196.480469 290.628906 L 173.902344 290.628906 Z M 103.128906 169.289063 L 160.882813 169.289063 L 160.882813 98.320313 C 157 95.507813 151.589844 90.320313 149.417969 87.207031 C 145.09375 81.03125 152.941406 73.558594 159.511719 77.5 C 161.253906 78.546875 163.65625 80.375 165.957031 82.425781 C 164.996094 80.054688 164.460938 77.4375 164.460938 74.679688 C 164.460938 71.667969 165.097656 68.816406 166.234375 66.28125 C 110.191406 74.808594 66.964844 122.328125 65.078125 180.296875 C 68.144531 175.214844 74.03125 171.78125 80.789063 171.78125 C 83.117188 171.78125 85.34375 172.1875 87.386719 172.933594 C 85.730469 171.015625 84.289063 169.082031 83.425781 167.636719 C 79.742188 161.503906 86.71875 154.175781 92.488281 158.210938 C 95.496094 160.3125 100.578125 165.644531 103.128906 169.289063 Z M 203.476563 169.289063 L 265.542969 169.289063 C 268.09375 165.644531 273.179688 160.3125 276.183594 158.210938 C 281.957031 154.175781 288.933594 161.503906 285.25 167.636719 C 284.382813 169.082031 282.941406 171.015625 281.289063 172.933594 C 283.332031 172.1875 285.558594 171.78125 287.886719 171.78125 C 294.644531 171.78125 300.527344 175.214844 303.59375 180.292969 C 301.65625 120.753906 256.101563 72.246094 197.84375 65.679688 C 199.15625 68.367188 199.898438 71.429688 199.898438 74.679688 C 199.898438 77.171875 199.460938 79.554688 198.664063 81.742188 C 200.71875 79.972656 202.789063 78.429688 204.332031 77.5 C 210.902344 73.558594 218.75 81.03125 214.429688 87.207031 C 212.347656 90.183594 207.308594 95.0625 203.476563 97.9375 Z M 302.953125 197.339844 C 299.75 201.875 294.199219 204.875 287.886719 204.875 C 285.3125 204.875 282.863281 204.375 280.652344 203.476563 C 282.566406 205.625 284.273438 207.871094 285.25 209.5 C 288.933594 215.632813 281.957031 222.960938 276.183594 218.925781 C 273.179688 216.828125 268.097656 211.492188 265.542969 207.847656 L 203.476563 207.847656 L 203.476563 287.625 C 207.96875 290.789063 211.730469 294.929688 214.464844 299.734375 C 261.691406 287.449219 297.535156 246.96875 302.953125 197.339844 Z M 160.882813 207.847656 L 103.128906 207.847656 C 100.578125 211.492188 95.496094 216.828125 92.488281 218.925781 C 86.71875 222.960938 79.742188 215.632813 83.425781 209.5 C 84.402344 207.871094 86.105469 205.625 88.023438 203.476563 C 85.808594 204.375 83.363281 204.875 80.789063 204.875 C 74.476563 204.875 68.925781 201.878906 65.722656 197.34375 C 70.992188 245.605469 105.042969 285.214844 150.34375 298.65625 C 153.050781 294.269531 156.648438 290.484375 160.882813 287.550781 Z M 69.929688 188.328125 C 69.929688 184.378906 73.128906 181.179688 77.078125 181.179688 C 81.023438 181.179688 84.226563 184.378906 84.226563 188.328125 C 84.226563 192.277344 81.023438 195.476563 77.078125 195.476563 C 73.128906 195.476563 69.929688 192.277344 69.929688 188.328125 Z M 298.742188 188.328125 C 298.742188 184.382813 295.542969 181.179688 291.597656 181.179688 C 287.648438 181.179688 284.449219 184.382813 284.449219 188.328125 C 284.449219 192.277344 287.648438 195.476563 291.597656 195.476563 C 295.542969 195.476563 298.742188 192.277344 298.742188 188.328125 Z M 187.226563 64.953125 L 187.300781 65.019531 C 187.371094 65.085938 187.445313 65.152344 187.515625 65.21875 L 187.523438 65.230469 C 187.59375 65.296875 187.660156 65.367188 187.726563 65.4375 L 187.796875 65.507813 L 187.929688 65.65625 L 187.992188 65.726563 L 187.996094 65.730469 L 188.058594 65.808594 L 188.0625 65.8125 L 188.113281 65.875 L 188.125 65.886719 L 188.183594 65.960938 L 188.234375 66.023438 L 188.375 66.210938 L 188.460938 66.332031 L 188.496094 66.382813 L 188.539063 66.445313 L 188.59375 66.53125 L 188.597656 66.535156 L 188.648438 66.609375 L 188.648438 66.613281 L 188.703125 66.699219 L 188.746094 66.773438 L 188.753906 66.785156 L 188.804688 66.871094 L 188.808594 66.878906 L 188.855469 66.957031 L 188.902344 67.046875 L 188.933594 67.105469 L 188.972656 67.179688 L 188.996094 67.222656 L 189.042969 67.3125 L 189.054688 67.34375 L 189.085938 67.402344 L 189.164063 67.574219 L 189.21875 67.699219 L 189.246094 67.765625 L 189.292969 67.882813 L 189.3125 67.925781 L 189.367188 68.074219 L 189.371094 68.078125 C 189.390625 68.136719 189.410156 68.191406 189.429688 68.25 L 189.429688 68.253906 L 189.433594 68.265625 L 189.484375 68.410156 L 189.488281 68.429688 L 189.492188 68.441406 L 189.535156 68.585938 L 189.546875 68.628906 L 189.585938 68.761719 L 189.597656 68.8125 L 189.636719 68.972656 L 189.640625 68.984375 L 189.675781 69.160156 L 189.679688 69.171875 C 189.691406 69.226563 189.703125 69.285156 189.710938 69.339844 L 189.714844 69.351563 L 189.71875 69.375 C 189.726563 69.429688 189.738281 69.484375 189.746094 69.539063 L 189.746094 69.546875 C 189.753906 69.605469 189.761719 69.664063 189.769531 69.722656 L 189.773438 69.734375 L 189.792969 69.910156 L 189.792969 69.9375 C 189.800781 69.988281 189.804688 70.042969 189.808594 70.097656 L 189.8125 70.132813 C 189.816406 70.191406 189.820313 70.25 189.824219 70.304688 L 189.824219 70.324219 L 189.832031 70.492188 L 189.832031 70.527344 C 189.832031 70.585938 189.832031 70.644531 189.832031 70.707031 C 189.832031 74.933594 186.40625 78.359375 182.179688 78.359375 C 177.953125 78.359375 174.527344 74.933594 174.527344 70.707031 C 174.527344 70.644531 174.527344 70.585938 174.53125 70.527344 L 174.53125 70.503906 C 174.53125 70.378906 174.539063 70.253906 174.546875 70.132813 L 174.550781 70.117188 L 174.550781 70.097656 C 174.558594 69.980469 174.574219 69.859375 174.585938 69.742188 L 174.589844 69.722656 L 174.613281 69.5625 L 174.617188 69.523438 L 174.644531 69.363281 L 174.652344 69.335938 L 174.683594 69.171875 L 174.6875 69.152344 L 174.722656 68.992188 L 174.726563 68.960938 L 174.765625 68.804688 L 174.773438 68.777344 L 174.8125 68.628906 L 174.824219 68.585938 L 174.867188 68.449219 L 174.871094 68.429688 L 174.875 68.414063 L 174.925781 68.265625 L 174.933594 68.234375 L 174.988281 68.082031 L 174.992188 68.074219 L 174.992188 68.070313 C 175.011719 68.019531 175.03125 67.972656 175.050781 67.921875 L 175.058594 67.902344 L 175.058594 67.898438 L 175.070313 67.871094 L 175.113281 67.765625 L 175.140625 67.699219 L 175.199219 67.566406 L 175.203125 67.558594 L 175.210938 67.546875 L 175.277344 67.402344 L 175.28125 67.390625 L 175.292969 67.371094 L 175.351563 67.25 L 175.375 67.203125 L 175.378906 67.199219 L 175.421875 67.113281 L 175.433594 67.09375 L 175.464844 67.039063 L 175.527344 66.925781 L 175.554688 66.875 L 175.628906 66.753906 L 175.644531 66.722656 L 175.722656 66.601563 L 175.75 66.558594 L 175.808594 66.46875 L 175.863281 66.386719 L 175.867188 66.378906 L 175.921875 66.300781 L 175.960938 66.246094 L 176.078125 66.089844 L 176.089844 66.070313 L 176.148438 65.996094 L 176.160156 65.980469 L 176.179688 65.960938 L 176.269531 65.847656 L 176.277344 65.839844 L 176.296875 65.8125 L 176.375 65.722656 L 176.390625 65.703125 L 176.394531 65.699219 L 176.476563 65.605469 L 176.5625 65.507813 L 176.597656 65.472656 L 176.679688 65.386719 L 176.859375 65.207031 C 178.238281 63.875 180.113281 63.054688 182.179688 63.054688 C 184.113281 63.054688 185.878906 63.769531 187.226563 64.953125 Z M 187.226563 64.953125 "/>
<path style=" stroke:none;fill-rule:evenodd;fill:rgb(0%,0.784302%,0%);fill-opacity:1;" d="M 126.164063 316.015625 L 120.292969 313.457031 C 120.640625 312.472656 120.75 311.640625 120.617188 310.964844 C 120.398438 309.867188 119.71875 309.023438 118.570313 308.4375 C 117.71875 308 116.957031 307.863281 116.292969 308.027344 C 115.621094 308.191406 115.152344 308.539063 114.882813 309.066406 C 114.625 309.566406 114.609375 310.128906 114.84375 310.75 C 115.078125 311.375 115.910156 312.265625 117.328125 313.445313 C 119.65625 315.375 121.125 317.121094 121.742188 318.671875 C 122.371094 320.226563 122.296875 321.761719 121.519531 323.277344 C 121.011719 324.273438 120.242188 325.0625 119.210938 325.652344 C 118.175781 326.246094 116.953125 326.496094 115.535156 326.40625 C 114.113281 326.320313 112.394531 325.757813 110.378906 324.722656 C 107.898438 323.453125 106.246094 322.027344 105.421875 320.4375 C 104.59375 318.847656 104.574219 316.984375 105.355469 314.84375 L 111.160156 317.398438 C 110.859375 318.355469 110.847656 319.15625 111.121094 319.800781 C 111.398438 320.449219 111.960938 320.988281 112.804688 321.417969 C 113.5 321.777344 114.105469 321.898438 114.609375 321.785156 C 115.109375 321.671875 115.472656 321.402344 115.6875 320.976563 C 115.847656 320.667969 115.84375 320.320313 115.683594 319.925781 C 115.542969 319.527344 114.992188 318.949219 114.050781 318.1875 C 111.722656 316.28125 110.140625 314.75 109.308594 313.59375 C 108.472656 312.433594 108.007813 311.296875 107.933594 310.175781 C 107.855469 309.058594 108.089844 307.96875 108.632813 306.910156 C 109.269531 305.667969 110.199219 304.695313 111.425781 303.996094 C 112.652344 303.300781 114.019531 302.992188 115.535156 303.085938 C 117.042969 303.175781 118.734375 303.699219 120.613281 304.660156 C 123.910156 306.351563 125.867188 308.15625 126.488281 310.074219 C 127.105469 311.992188 127 313.972656 126.164063 316.015625 Z M 98.753906 303.765625 L 91.835938 298.332031 L 94.734375 294.644531 L 101.648438 300.082031 Z M 74.15625 298.914063 L 68.339844 292.199219 L 76.148438 280.960938 L 63.902344 287.074219 L 58.113281 280.394531 L 74.585938 266.125 L 78.191406 270.289063 L 65.636719 281.164063 L 80.976563 273.5 L 84.246094 277.273438 L 74.464844 291.355469 L 87.019531 280.480469 L 90.628906 284.644531 Z M 60.523438 263.566406 L 56.140625 255.941406 L 60.203125 253.605469 L 64.589844 261.230469 Z M 50.441406 225.765625 C 50.675781 224.769531 50.820313 224.125 50.859375 223.832031 C 50.925781 223.398438 50.96875 222.816406 51 222.109375 L 55.1875 222.457031 C 55.109375 223.496094 54.949219 224.5625 54.703125 225.648438 C 54.457031 226.738281 54.253906 227.511719 54.09375 227.964844 C 55.238281 229.113281 56.222656 230.722656 57.046875 232.8125 C 58.261719 235.890625 58.417969 238.640625 57.515625 241.050781 C 56.445313 243.902344 54.195313 246.007813 50.761719 247.363281 C 47.421875 248.675781 44.46875 248.777344 41.894531 247.667969 C 39.324219 246.554688 37.386719 244.351563 36.082031 241.046875 C 34.757813 237.683594 34.636719 234.734375 35.71875 232.1875 C 36.800781 229.648438 39.027344 227.710938 42.386719 226.386719 C 45.378906 225.207031 48.0625 225 50.441406 225.765625 Z M 49.117188 231.832031 C 48.027344 231.683594 46.59375 231.957031 44.816406 232.660156 C 42.773438 233.464844 41.464844 234.421875 40.886719 235.527344 C 40.316406 236.636719 40.289063 237.859375 40.816406 239.199219 C 41.3125 240.449219 42.15625 241.28125 43.355469 241.703125 C 44.554688 242.132813 46.101563 241.96875 48 241.21875 C 50.214844 240.347656 51.617188 239.355469 52.210938 238.25 C 52.804688 237.140625 52.84375 235.921875 52.324219 234.605469 C 52.15625 234.183594 51.957031 233.796875 51.726563 233.453125 C 51.425781 234.183594 51.277344 235.199219 51.269531 236.515625 L 48.632813 236.421875 C 48.511719 235.828125 48.46875 235.34375 48.496094 234.976563 C 48.519531 234.609375 48.667969 233.851563 48.9375 232.703125 C 49 232.433594 49.0625 232.140625 49.117188 231.832031 Z M 40.765625 215.734375 L 39.21875 207.074219 L 43.835938 206.25 L 45.382813 214.910156 Z M 26.246094 196.527344 L 26.074219 189.804688 L 42.507813 189.386719 L 42.238281 178.859375 L 47.59375 178.726563 L 48.03125 195.976563 Z M 38.171875 169.476563 L 39.28125 160.753906 L 43.929688 161.34375 L 42.820313 170.070313 Z M 30.367188 146.625 L 32.214844 140.125 L 53.179688 146.078125 L 51.332031 152.578125 Z M 46.628906 133.054688 L 49.855469 124.871094 L 54.21875 126.589844 L 50.992188 134.773438 Z M 43.761719 110.078125 L 47.558594 104.152344 L 63.414063 108.484375 L 52.824219 95.945313 L 56.511719 90.191406 L 70.488281 108.765625 L 66.554688 114.90625 Z M 71.808594 89.863281 L 77.566406 83.214844 L 81.109375 86.28125 L 75.351563 92.929688 Z M 78.453125 66.046875 L 88.371094 58.25 C 90.023438 56.953125 91.613281 56.367188 93.140625 56.488281 C 94.667969 56.609375 95.910156 57.277344 96.859375 58.484375 C 97.65625 59.496094 98.023438 60.613281 97.957031 61.835938 C 97.917969 62.652344 97.597656 63.515625 97.011719 64.433594 C 98.476563 63.761719 99.777344 63.558594 100.925781 63.824219 C 102.070313 64.089844 103.074219 64.769531 103.929688 65.855469 C 104.628906 66.746094 105.046875 67.707031 105.195313 68.738281 C 105.339844 69.777344 105.210938 70.78125 104.824219 71.753906 C 104.578125 72.363281 104.054688 73.074219 103.246094 73.898438 C 102.175781 74.988281 101.449219 75.691406 101.058594 75.996094 L 91.917969 83.179688 Z M 89.074219 68.578125 L 91.382813 66.761719 C 92.207031 66.113281 92.671875 65.515625 92.773438 64.976563 C 92.871094 64.4375 92.710938 63.898438 92.289063 63.359375 C 91.898438 62.859375 91.425781 62.597656 90.882813 62.574219 C 90.339844 62.542969 89.664063 62.847656 88.859375 63.480469 L 86.515625 65.324219 Z M 94.359375 75.300781 L 97.058594 73.179688 C 97.972656 72.460938 98.484375 71.792969 98.605469 71.175781 C 98.726563 70.558594 98.578125 69.980469 98.148438 69.433594 C 97.75 68.925781 97.246094 68.664063 96.632813 68.648438 C 96.019531 68.632813 95.25 68.988281 94.320313 69.71875 L 91.628906 71.832031 Z M 94.359375 75.300781 "/>
<path style=" stroke:none;fill-rule:evenodd;fill:rgb(0%,0.784302%,0%);fill-opacity:1;" d="M 274.195313 53.453125 L 279.730469 57.800781 L 273.898438 73.167969 L 287.394531 63.824219 L 292.765625 68.046875 L 272.941406 80.183594 L 267.203125 75.675781 Z M 291.410156 83.5625 L 297.167969 90.210938 L 293.625 93.277344 L 287.867188 86.628906 Z M 295.070313 103.90625 L 313.414063 92.144531 L 319.472656 101.59375 C 320.59375 103.34375 321.304688 104.78125 321.59375 105.898438 C 321.886719 107.015625 321.808594 108.121094 321.359375 109.210938 C 320.90625 110.300781 320.09375 111.21875 318.925781 111.96875 C 317.90625 112.621094 316.886719 112.96875 315.871094 113.007813 C 314.851563 113.050781 313.871094 112.835938 312.917969 112.367188 C 312.316406 112.070313 311.648438 111.5625 310.914063 110.84375 C 311.121094 111.664063 311.214844 112.296875 311.1875 112.75 C 311.167969 113.050781 311.039063 113.5625 310.800781 114.273438 C 310.5625 114.980469 310.351563 115.488281 310.167969 115.792969 L 306.632813 121.945313 L 302.527344 115.539063 L 306.179688 108.925781 C 306.660156 108.074219 306.910156 107.433594 306.9375 106.996094 C 306.957031 106.402344 306.796875 105.847656 306.46875 105.332031 L 306.148438 104.832031 L 298.714844 109.597656 Z M 309.605469 102.613281 L 311.140625 105.011719 C 311.304688 105.265625 311.714844 105.714844 312.355469 106.351563 C 312.671875 106.679688 313.058594 106.867188 313.523438 106.898438 C 313.988281 106.9375 314.417969 106.832031 314.820313 106.574219 C 315.414063 106.195313 315.75 105.714844 315.824219 105.132813 C 315.90625 104.554688 315.609375 103.746094 314.945313 102.710938 L 313.347656 100.214844 Z M 318.625 124.386719 L 321.851563 132.570313 L 317.492188 134.289063 L 314.265625 126.105469 Z M 322.152344 141.9375 L 323.980469 148.074219 C 323 148.441406 322.292969 148.894531 321.867188 149.429688 C 321.167969 150.304688 320.960938 151.367188 321.25 152.625 C 321.464844 153.558594 321.847656 154.230469 322.40625 154.632813 C 322.960938 155.039063 323.53125 155.175781 324.109375 155.042969 C 324.65625 154.914063 325.097656 154.5625 325.421875 153.984375 C 325.746094 153.402344 325.890625 152.191406 325.878906 150.347656 C 325.855469 147.324219 326.246094 145.078125 327.035156 143.605469 C 327.816406 142.121094 329.039063 141.191406 330.699219 140.808594 C 331.785156 140.554688 332.886719 140.636719 334.003906 141.042969 C 335.121094 141.453125 336.101563 142.226563 336.949219 143.367188 C 337.796875 144.511719 338.472656 146.1875 338.984375 148.394531 C 339.609375 151.109375 339.582031 153.292969 338.898438 154.949219 C 338.21875 156.605469 336.808594 157.820313 334.664063 158.601563 L 332.875 152.519531 C 333.800781 152.132813 334.425781 151.625 334.738281 151 C 335.054688 150.371094 335.105469 149.59375 334.894531 148.667969 C 334.71875 147.90625 334.421875 147.367188 334.011719 147.054688 C 333.601563 146.746094 333.160156 146.644531 332.695313 146.75 C 332.359375 146.828125 332.09375 147.054688 331.894531 147.429688 C 331.683594 147.796875 331.59375 148.585938 331.617188 149.800781 C 331.664063 152.808594 331.507813 155.003906 331.160156 156.386719 C 330.8125 157.773438 330.242188 158.859375 329.433594 159.636719 C 328.628906 160.417969 327.644531 160.941406 326.484375 161.207031 C 325.125 161.523438 323.78125 161.4375 322.457031 160.953125 C 321.136719 160.460938 320.019531 159.613281 319.113281 158.394531 C 318.210938 157.183594 317.519531 155.550781 317.046875 153.496094 C 316.214844 149.886719 316.332031 147.226563 317.402344 145.515625 C 318.46875 143.804688 320.054688 142.613281 322.152344 141.9375 Z M 330.519531 169.839844 L 331.183594 178.609375 L 326.511719 178.964844 L 325.84375 170.195313 Z M 343.101563 191.136719 L 342.308594 197.371094 L 329.34375 203.960938 L 341.277344 205.476563 L 340.476563 211.789063 L 318.859375 209.042969 L 319.660156 202.730469 L 332.554688 196.179688 L 320.683594 194.667969 L 321.480469 188.390625 Z M 326.722656 220.539063 L 324.320313 229 L 319.808594 227.71875 L 322.210938 219.257813 Z M 318.53125 236.492188 L 316.265625 242.480469 C 315.265625 242.179688 314.425781 242.113281 313.761719 242.28125 C 312.675781 242.550781 311.867188 243.269531 311.335938 244.445313 C 310.941406 245.320313 310.839844 246.085938 311.039063 246.742188 C 311.234375 247.40625 311.601563 247.855469 312.144531 248.101563 C 312.65625 248.332031 313.21875 248.320313 313.828125 248.054688 C 314.4375 247.792969 315.289063 246.917969 316.398438 245.441406 C 318.214844 243.023438 319.882813 241.472656 321.40625 240.78125 C 322.925781 240.078125 324.460938 240.074219 326.015625 240.777344 C 327.03125 241.238281 327.859375 241.96875 328.5 242.96875 C 329.140625 243.972656 329.453125 245.179688 329.433594 246.605469 C 329.414063 248.027344 328.9375 249.769531 328.003906 251.835938 C 326.855469 254.375 325.511719 256.09375 323.960938 256.996094 C 322.417969 257.902344 320.558594 258.011719 318.378906 257.332031 L 320.644531 251.410156 C 321.617188 251.664063 322.417969 251.640625 323.046875 251.332031 C 323.683594 251.023438 324.195313 250.4375 324.585938 249.574219 C 324.90625 248.859375 324.996094 248.25 324.859375 247.753906 C 324.722656 247.257813 324.433594 246.910156 324 246.714844 C 323.6875 246.570313 323.335938 246.59375 322.949219 246.769531 C 322.558594 246.929688 322.011719 247.507813 321.296875 248.484375 C 319.503906 250.90625 318.050781 252.558594 316.9375 253.445313 C 315.820313 254.339844 314.707031 254.855469 313.589844 254.984375 C 312.480469 255.117188 311.378906 254.9375 310.292969 254.445313 C 309.023438 253.871094 308.007813 252.988281 307.25 251.800781 C 306.496094 250.609375 306.121094 249.257813 306.136719 247.742188 C 306.152344 246.230469 306.597656 244.511719 307.464844 242.589844 C 308.992188 239.214844 310.699219 237.171875 312.585938 236.460938 C 314.472656 235.75 316.453125 235.757813 318.53125 236.492188 Z M 307.816406 264.019531 L 302.71875 271.191406 L 298.898438 268.472656 L 303.996094 261.304688 Z M 304.492188 288.484375 L 298.0625 294.613281 L 286.464844 287.351563 L 293.15625 299.289063 L 286.757813 305.390625 L 271.71875 289.617188 L 275.707031 285.816406 L 287.171875 297.839844 L 278.785156 282.882813 L 282.398438 279.4375 L 296.929688 288.535156 L 285.46875 276.511719 L 289.453125 272.710938 Z M 270.589844 303.117188 L 263.421875 308.214844 L 260.703125 304.394531 L 267.871094 299.296875 Z M 260.792969 323.503906 L 254.382813 326.402344 L 243.445313 314.132813 L 245.496094 330.417969 L 239.273438 333.234375 L 237.667969 310.042969 L 244.3125 307.035156 Z M 260.792969 323.503906 "/>
<path style=" stroke:none;fill-rule:evenodd;fill:rgb(0%,0.784302%,0%);fill-opacity:1;" d="M 153.234375 29.585938 L 163.351563 28.300781 C 164.632813 28.136719 165.714844 28.132813 166.59375 28.285156 C 167.476563 28.4375 168.25 28.746094 168.925781 29.195313 C 169.601563 29.648438 170.152344 30.214844 170.570313 30.90625 C 170.996094 31.589844 171.257813 32.335938 171.363281 33.148438 C 171.570313 34.785156 171.117188 36.238281 169.996094 37.507813 C 168.878906 38.773438 167.210938 39.546875 164.996094 39.828125 L 161.726563 40.242188 L 162.183594 43.828125 C 162.238281 44.273438 162.308594 44.554688 162.390625 44.664063 C 162.492188 44.832031 162.632813 44.941406 162.8125 45.003906 C 162.992188 45.0625 163.28125 45.070313 163.6875 45.019531 L 164.660156 44.894531 L 164.996094 47.535156 L 155.667969 48.71875 L 155.332031 46.078125 L 155.976563 45.996094 C 156.546875 45.925781 156.921875 45.835938 157.09375 45.730469 C 157.265625 45.625 157.386719 45.476563 157.445313 45.289063 C 157.503906 45.097656 157.5 44.722656 157.429688 44.167969 L 156.089844 33.640625 C 156.015625 33.050781 155.929688 32.667969 155.832031 32.492188 C 155.738281 32.3125 155.601563 32.1875 155.429688 32.125 C 155.257813 32.054688 154.949219 32.050781 154.492188 32.109375 L 153.570313 32.226563 Z M 160.65625 31.8125 L 161.347656 37.261719 L 162.988281 37.054688 C 163.984375 36.929688 164.707031 36.730469 165.148438 36.464844 C 165.59375 36.199219 165.925781 35.835938 166.15625 35.371094 C 166.390625 34.910156 166.464844 34.386719 166.390625 33.796875 C 166.277344 32.914063 165.851563 32.261719 165.109375 31.832031 C 164.554688 31.511719 163.78125 31.414063 162.792969 31.542969 Z M 177.847656 26.980469 L 182.203125 26.867188 L 188.371094 41.617188 C 188.707031 42.390625 189 42.871094 189.242188 43.046875 C 189.492188 43.226563 189.945313 43.304688 190.59375 43.289063 L 190.664063 45.949219 L 181.546875 46.179688 L 181.476563 43.519531 L 182.03125 43.492188 C 182.535156 43.476563 182.886719 43.402344 183.085938 43.261719 C 183.285156 43.125 183.382813 42.957031 183.375 42.761719 C 183.371094 42.597656 183.277344 42.257813 183.085938 41.746094 L 182.453125 40.007813 L 176.609375 40.15625 L 175.9375 42.125 C 175.800781 42.542969 175.730469 42.8125 175.734375 42.945313 C 175.738281 43.09375 175.792969 43.222656 175.90625 43.34375 C 176.011719 43.457031 176.191406 43.542969 176.433594 43.589844 C 176.589844 43.625 177.027344 43.632813 177.742188 43.613281 L 177.808594 46.273438 L 170.332031 46.464844 L 170.265625 43.800781 C 170.746094 43.789063 171.09375 43.738281 171.316406 43.652344 C 171.53125 43.5625 171.710938 43.433594 171.847656 43.265625 C 171.984375 43.097656 172.136719 42.78125 172.300781 42.328125 Z M 177.554688 37.382813 L 181.378906 37.289063 L 179.375 32.058594 Z M 195.035156 26.992188 L 205.320313 28.300781 L 204.984375 30.941406 L 204.1875 30.839844 C 203.765625 30.785156 203.496094 30.785156 203.375 30.839844 C 203.246094 30.898438 203.175781 31 203.15625 31.15625 C 203.148438 31.234375 203.160156 31.328125 203.195313 31.417969 C 203.230469 31.511719 203.339844 31.703125 203.527344 32 L 205.191406 34.652344 L 207.890625 32.492188 C 208.226563 32.199219 208.402344 31.980469 208.421875 31.835938 C 208.4375 31.683594 208.390625 31.566406 208.28125 31.472656 C 208.164063 31.382813 207.882813 31.308594 207.4375 31.253906 L 206.726563 31.164063 L 207.0625 28.519531 L 215.660156 29.613281 L 215.324219 32.253906 C 214.691406 32.175781 214.242188 32.15625 213.96875 32.195313 C 213.699219 32.238281 213.378906 32.351563 213.011719 32.53125 C 212.742188 32.667969 212.441406 32.878906 212.109375 33.160156 L 206.886719 37.34375 L 211.207031 44.234375 C 211.738281 44.964844 212.195313 45.457031 212.570313 45.695313 C 212.949219 45.933594 213.488281 46.097656 214.179688 46.1875 L 213.847656 48.828125 L 203.367188 47.496094 L 203.703125 44.855469 L 204.660156 44.976563 C 205.105469 45.03125 205.390625 45.035156 205.507813 44.988281 C 205.628906 44.9375 205.691406 44.84375 205.707031 44.71875 C 205.730469 44.546875 205.613281 44.257813 205.359375 43.867188 L 203.128906 40.355469 L 199.675781 43.125 C 199.382813 43.378906 199.222656 43.617188 199.195313 43.84375 C 199.179688 43.96875 199.230469 44.085938 199.359375 44.183594 C 199.488281 44.28125 199.761719 44.355469 200.195313 44.40625 L 200.949219 44.503906 L 200.613281 47.144531 L 191.875 46.035156 L 192.210938 43.394531 C 192.816406 43.472656 193.25 43.492188 193.507813 43.457031 C 193.769531 43.429688 194.019531 43.351563 194.246094 43.234375 C 194.636719 43.023438 195.125 42.699219 195.699219 42.261719 L 201.429688 37.671875 L 197.339844 31.210938 C 196.910156 30.621094 196.550781 30.230469 196.257813 30.046875 C 195.957031 29.867188 195.441406 29.726563 194.699219 29.632813 Z M 195.035156 26.992188 "/>
<path style=" stroke:none;fill-rule:evenodd;fill:rgb(0%,0.784302%,0%);fill-opacity:1;" d="M 216.730469 37.3125 L 221.234375 39.589844 L 219.414063 32.125 L 223.609375 34.207031 L 225.453125 41.796875 L 228.011719 43.136719 L 226.144531 35.46875 L 229.640625 37.203125 L 231.523438 44.972656 L 234.484375 46.519531 L 232.570313 38.660156 L 235.367188 40.050781 L 237.292969 47.992188 L 241.027344 49.945313 L 239.070313 41.890625 L 241.585938 43.140625 L 243.554688 51.269531 L 248.222656 53.710938 L 246.851563 56.523438 L 241.429688 54.0625 L 236.421875 58.667969 L 234.066406 57.910156 L 239.300781 53.101563 L 234.867188 51.089844 L 229.160156 56.332031 L 226.542969 55.492188 L 232.503906 50.019531 L 229.515625 48.664063 L 223.238281 54.429688 L 219.96875 53.378906 L 226.558594 47.324219 L 223.894531 46.117188 L 217.023438 52.433594 L 213.097656 51.171875 L 220.351563 44.511719 L 215.96875 42.527344 Z M 216.730469 37.3125 "/>
<path style=" stroke:none;fill-rule:evenodd;fill:rgb(0%,0.784302%,0%);fill-opacity:1;" d="M 148.351563 37.3125 L 143.84375 39.589844 L 145.664063 32.125 L 141.46875 34.207031 L 139.628906 41.796875 L 137.066406 43.136719 L 138.933594 35.46875 L 135.441406 37.203125 L 133.554688 44.972656 L 130.597656 46.519531 L 132.507813 38.660156 L 129.714844 40.050781 L 127.789063 47.992188 L 124.050781 49.945313 L 126.011719 41.890625 L 123.496094 43.140625 L 121.523438 51.269531 L 116.855469 53.710938 L 118.226563 56.523438 L 123.652344 54.0625 L 128.660156 58.667969 L 131.015625 57.910156 L 125.777344 53.101563 L 130.210938 51.089844 L 135.917969 56.332031 L 138.535156 55.492188 L 132.574219 50.019531 L 135.566406 48.664063 L 141.839844 54.429688 L 145.113281 53.378906 L 138.519531 47.324219 L 141.183594 46.117188 L 148.054688 52.433594 L 151.984375 51.171875 L 144.730469 44.511719 L 149.109375 42.527344 Z M 148.351563 37.3125 "/>
<path style=" stroke:none;fill-rule:evenodd;fill:rgb(0%,0.784302%,0%);fill-opacity:1;" d="M 126.164063 214.355469 C 134.378906 214.355469 141.816406 217.6875 147.199219 223.070313 C 152.582031 228.453125 155.914063 235.890625 155.914063 244.105469 C 155.914063 252.316406 152.582031 259.753906 147.199219 265.140625 C 141.816406 270.523438 134.378906 273.851563 126.164063 273.851563 C 117.949219 273.851563 110.511719 270.523438 105.128906 265.140625 C 99.746094 259.753906 96.417969 252.320313 96.417969 244.105469 C 96.417969 235.890625 99.746094 228.453125 105.128906 223.070313 C 110.511719 217.6875 117.949219 214.355469 126.164063 214.355469 Z M 247.050781 116.851563 L 247.289063 127.433594 L 246.332031 127.433594 C 245.875 124.785156 244.765625 122.652344 242.996094 121.042969 C 241.21875 119.429688 239.300781 118.625 237.242188 118.625 C 235.648438 118.625 234.386719 119.046875 233.460938 119.902344 C 232.527344 120.746094 232.066406 121.726563 232.066406 122.828125 C 232.066406 123.53125 232.234375 124.152344 232.558594 124.703125 C 233.007813 125.429688 233.734375 126.15625 234.738281 126.875 C 235.472656 127.386719 237.164063 128.300781 239.8125 129.609375 C 243.53125 131.429688 246.035156 133.152344 247.328125 134.773438 C 248.613281 136.394531 249.25 138.242188 249.25 140.335938 C 249.25 142.984375 248.214844 145.257813 246.148438 147.164063 C 244.082031 149.070313 241.457031 150.027344 238.273438 150.027344 C 237.277344 150.027344 236.324219 149.925781 235.441406 149.726563 C 234.546875 149.527344 233.429688 149.140625 232.089844 148.574219 C 231.339844 148.265625 230.726563 148.113281 230.238281 148.113281 C 229.832031 148.113281 229.410156 148.273438 228.953125 148.585938 C 228.5 148.902344 228.132813 149.382813 227.851563 150.027344 L 227.039063 150.027344 L 227.039063 138.058594 L 227.851563 138.058594 C 228.539063 141.417969 229.863281 143.988281 231.816406 145.75 C 233.78125 147.515625 235.886719 148.402344 238.152344 148.402344 C 239.902344 148.402344 241.296875 147.921875 242.332031 146.972656 C 243.371094 146.023438 243.890625 144.921875 243.890625 143.652344 C 243.890625 142.910156 243.691406 142.183594 243.292969 141.484375 C 242.890625 140.78125 242.292969 140.117188 241.480469 139.480469 C 240.667969 138.851563 239.230469 138.027344 237.171875 137.015625 C 234.285156 135.601563 232.210938 134.390625 230.949219 133.394531 C 229.695313 132.394531 228.730469 131.277344 228.050781 130.050781 C 227.375 128.8125 227.039063 127.457031 227.039063 125.980469 C 227.039063 123.453125 227.964844 121.296875 229.824219 119.519531 C 231.675781 117.738281 234.011719 116.851563 236.835938 116.851563 C 237.867188 116.851563 238.863281 116.972656 239.828125 117.21875 C 240.5625 117.410156 241.457031 117.753906 242.507813 118.257813 C 243.5625 118.761719 244.296875 119.007813 244.71875 119.007813 C 245.125 119.007813 245.445313 118.886719 245.675781 118.640625 C 245.910156 118.394531 246.132813 117.792969 246.332031 116.851563 Z M 238.144531 103.691406 C 246.359375 103.691406 253.796875 107.023438 259.179688 112.40625 C 264.5625 117.789063 267.894531 125.226563 267.894531 133.441406 C 267.894531 141.65625 264.5625 149.09375 259.179688 154.476563 C 253.796875 159.859375 246.359375 163.1875 238.144531 163.1875 C 229.929688 163.1875 222.492188 159.859375 217.109375 154.476563 C 211.726563 149.09375 208.398438 141.65625 208.398438 133.441406 C 208.398438 125.226563 211.726563 117.789063 217.109375 112.40625 C 222.492188 107.023438 229.929688 103.691406 238.144531 103.691406 Z M 256.214844 115.371094 C 251.589844 110.746094 245.203125 107.886719 238.144531 107.886719 C 231.089844 107.886719 224.699219 110.746094 220.074219 115.371094 C 215.453125 119.996094 212.589844 126.382813 212.589844 133.441406 C 212.589844 140.496094 215.453125 146.886719 220.074219 151.511719 C 224.699219 156.132813 231.089844 158.996094 238.144531 158.996094 C 245.203125 158.996094 251.589844 156.132813 256.214844 151.511719 C 260.839844 146.886719 263.699219 140.496094 263.699219 133.441406 C 263.699219 126.382813 260.839844 119.996094 256.214844 115.371094 Z M 141.171875 116.851563 L 141.171875 127.863281 L 140.261719 127.863281 C 139.578125 124.976563 138.308594 122.757813 136.441406 121.21875 C 134.574219 119.679688 132.460938 118.910156 130.097656 118.910156 C 128.128906 118.910156 126.316406 119.476563 124.664063 120.621094 C 123.019531 121.761719 121.816406 123.253906 121.050781 125.09375 C 120.070313 127.457031 119.582031 130.082031 119.582031 132.96875 C 119.582031 135.808594 119.941406 138.402344 120.652344 140.742188 C 121.371094 143.070313 122.488281 144.84375 124.011719 146.03125 C 125.535156 147.226563 127.511719 147.824219 129.9375 147.824219 C 131.933594 147.824219 133.753906 147.386719 135.410156 146.515625 C 137.0625 145.640625 138.8125 144.140625 140.644531 142 L 140.644531 144.730469 C 138.875 146.589844 137.023438 147.9375 135.101563 148.777344 C 133.175781 149.613281 130.9375 150.027344 128.367188 150.027344 C 124.984375 150.027344 121.984375 149.351563 119.367188 147.992188 C 116.742188 146.636719 114.714844 144.683594 113.296875 142.144531 C 111.867188 139.601563 111.15625 136.894531 111.15625 134.023438 C 111.15625 131 111.945313 128.128906 113.527344 125.414063 C 115.105469 122.703125 117.238281 120.59375 119.925781 119.09375 C 122.605469 117.601563 125.453125 116.851563 128.480469 116.851563 C 130.703125 116.851563 133.050781 117.339844 135.523438 118.304688 C 136.960938 118.871094 137.871094 119.152344 138.253906 119.152344 C 138.753906 119.152344 139.1875 118.96875 139.550781 118.601563 C 139.917969 118.234375 140.152344 117.652344 140.261719 116.851563 Z M 126.164063 103.691406 C 134.378906 103.691406 141.816406 107.023438 147.199219 112.40625 C 152.582031 117.789063 155.914063 125.226563 155.914063 133.441406 C 155.914063 141.65625 152.582031 149.09375 147.199219 154.476563 C 141.816406 159.859375 134.378906 163.1875 126.164063 163.1875 C 117.949219 163.1875 110.511719 159.859375 105.128906 154.476563 C 99.746094 149.09375 96.417969 141.65625 96.417969 133.441406 C 96.417969 125.226563 99.746094 117.789063 105.128906 112.40625 C 110.511719 107.023438 117.949219 103.691406 126.164063 103.691406 Z M 144.234375 115.371094 C 139.609375 110.746094 133.222656 107.886719 126.164063 107.886719 C 119.109375 107.886719 112.71875 110.746094 108.09375 115.371094 C 103.472656 119.996094 100.609375 126.382813 100.609375 133.441406 C 100.609375 140.496094 103.472656 146.886719 108.09375 151.511719 C 112.71875 156.132813 119.109375 158.996094 126.164063 158.996094 C 133.222656 158.996094 139.609375 156.132813 144.234375 151.511719 C 148.859375 146.886719 151.71875 140.496094 151.71875 133.441406 C 151.71875 126.382813 148.859375 119.996094 144.234375 115.371094 Z M 243.765625 243.128906 C 246.789063 243.832031 248.917969 244.6875 250.140625 245.683594 C 251.894531 247.105469 252.773438 248.945313 252.773438 251.210938 C 252.773438 253.597656 251.816406 255.578125 249.894531 257.140625 C 247.539063 259.03125 244.117188 259.972656 239.632813 259.972656 L 223.515625 259.972656 L 223.515625 259.160156 C 224.984375 259.160156 225.980469 259.023438 226.5 258.746094 C 227.027344 258.472656 227.394531 258.113281 227.601563 257.675781 C 227.816406 257.238281 227.921875 256.152344 227.921875 254.421875 L 227.921875 233.789063 C 227.921875 232.054688 227.816406 230.972656 227.601563 230.523438 C 227.394531 230.078125 227.019531 229.71875 226.492188 229.445313 C 225.957031 229.183594 224.96875 229.046875 223.515625 229.046875 L 223.515625 228.234375 L 238.722656 228.234375 C 242.363281 228.234375 244.929688 228.5625 246.445313 229.207031 C 247.960938 229.855469 249.152344 230.820313 250.027344 232.105469 C 250.898438 233.390625 251.335938 234.761719 251.335938 236.207031 C 251.335938 237.738281 250.777344 239.09375 249.660156 240.289063 C 248.546875 241.480469 246.582031 242.429688 243.765625 243.128906 Z M 235.246094 242.5 C 237.480469 242.5 239.128906 242.253906 240.191406 241.75 C 241.253906 241.253906 242.066406 240.554688 242.632813 239.644531 C 243.199219 238.742188 243.488281 237.585938 243.488281 236.179688 C 243.488281 234.777344 243.207031 233.628906 242.648438 232.734375 C 242.089844 231.832031 241.292969 231.15625 240.246094 230.683594 C 239.210938 230.214844 237.542969 229.988281 235.246094 230.007813 Z M 235.246094 244.320313 L 235.246094 255.65625 C 235.246094 256.496094 235.453125 257.132813 235.875 257.554688 C 236.296875 257.988281 236.921875 258.203125 237.75 258.203125 C 238.980469 258.203125 240.105469 257.921875 241.140625 257.371094 C 242.179688 256.820313 242.96875 256.023438 243.519531 254.96875 C 244.070313 253.925781 244.347656 252.753906 244.347656 251.46875 C 244.347656 249.992188 244.039063 248.667969 243.421875 247.496094 C 242.800781 246.320313 241.890625 245.492188 240.679688 245.011719 C 239.464844 244.535156 237.65625 244.304688 235.246094 244.320313 Z M 238.144531 214.355469 C 246.359375 214.355469 253.796875 217.6875 259.179688 223.070313 C 264.5625 228.453125 267.894531 235.890625 267.894531 244.105469 C 267.894531 252.316406 264.5625 259.753906 259.179688 265.140625 C 253.796875 270.523438 246.359375 273.851563 238.144531 273.851563 C 229.929688 273.851563 222.492188 270.523438 217.109375 265.140625 C 211.726563 259.753906 208.398438 252.320313 208.398438 244.105469 C 208.398438 235.890625 211.726563 228.453125 217.109375 223.070313 C 222.492188 217.6875 229.929688 214.355469 238.144531 214.355469 Z M 256.214844 226.035156 C 251.589844 221.410156 245.203125 218.550781 238.144531 218.550781 C 231.089844 218.550781 224.699219 221.410156 220.074219 226.035156 C 215.453125 230.660156 212.589844 237.046875 212.589844 244.105469 C 212.589844 251.160156 215.453125 257.550781 220.074219 262.171875 C 224.699219 266.796875 231.089844 269.65625 238.144531 269.65625 C 245.203125 269.65625 251.589844 266.796875 256.214844 262.171875 C 260.839844 257.550781 263.699219 251.160156 263.699219 244.105469 C 263.699219 237.046875 260.839844 230.660156 256.214844 226.035156 Z M 124.585938 245.613281 L 124.585938 254.421875 C 124.585938 256.152344 124.6875 257.238281 124.90625 257.683594 C 125.113281 258.128906 125.488281 258.488281 126.03125 258.761719 C 126.5625 259.023438 127.554688 259.160156 128.988281 259.160156 L 128.988281 259.972656 L 112.855469 259.972656 L 112.855469 259.160156 C 114.324219 259.160156 115.320313 259.023438 115.839844 258.746094 C 116.367188 258.472656 116.734375 258.113281 116.941406 257.675781 C 117.15625 257.238281 117.261719 256.152344 117.261719 254.421875 L 117.261719 233.789063 C 117.261719 232.054688 117.15625 230.972656 116.941406 230.523438 C 116.734375 230.078125 116.367188 229.71875 115.832031 229.445313 C 115.296875 229.183594 114.308594 229.046875 112.855469 229.046875 L 112.855469 228.234375 L 126.691406 228.234375 C 131.246094 228.234375 134.519531 229.046875 136.496094 230.667969 C 138.484375 232.296875 139.472656 234.320313 139.472656 236.753906 C 139.472656 238.820313 138.835938 240.585938 137.550781 242.054688 C 136.273438 243.519531 134.511719 244.519531 132.261719 245.054688 C 130.753906 245.429688 128.191406 245.613281 124.585938 245.613281 Z M 124.585938 230.054688 L 124.585938 243.792969 C 125.105469 243.824219 125.496094 243.839844 125.757813 243.839844 C 127.664063 243.839844 129.140625 243.273438 130.171875 242.140625 C 131.199219 241.007813 131.71875 239.253906 131.71875 236.875 C 131.71875 234.511719 131.199219 232.789063 130.171875 231.695313 C 129.140625 230.605469 127.59375 230.054688 125.550781 230.054688 Z M 144.234375 226.035156 C 139.609375 221.410156 133.222656 218.550781 126.164063 218.550781 C 119.109375 218.550781 112.71875 221.410156 108.09375 226.035156 C 103.472656 230.660156 100.609375 237.046875 100.609375 244.105469 C 100.609375 251.160156 103.472656 257.550781 108.09375 262.171875 C 112.71875 266.796875 119.109375 269.65625 126.164063 269.65625 C 133.222656 269.65625 139.609375 266.796875 144.234375 262.171875 C 148.859375 257.550781 151.71875 251.160156 151.71875 244.105469 C 151.71875 237.046875 148.859375 230.660156 144.234375 226.035156 Z M 144.234375 226.035156 "/>
</g>
</svg>
