<?xml version="1.0" encoding="UTF-8"?>
<svg xmlns="http://www.w3.org/2000/svg" xmlns:xlink="http://www.w3.org/1999/xlink" width="368.5pt" height="368.5pt" viewBox="0 0 368.5 368.5" version="1.1">
<g id="surface1">
<path style=" stroke:none;fill-rule:evenodd;fill:rgb(0%,0.784302%,0%);fill-opacity:1;" d="M 184.335938 -0.0078125 C 286.097656 -0.0078125 368.589844 82.484375 368.589844 184.246094 C 368.589844 286.003906 286.097656 368.496094 184.335938 368.496094 C 82.578125 368.496094 0.0859375 286.003906 0.0859375 184.246094 C 0.0859375 82.484375 82.578125 -0.0078125 184.335938 -0.0078125 Z M 267.710938 39.167969 L 242.402344 73.058594 C 227.332031 65.171875 210.460938 60.253906 192.566406 59.09375 C 189.648438 56.796875 186.058594 55.445313 182.179688 55.445313 C 178.082031 55.445313 174.3125 56.953125 171.308594 59.488281 C 153.5 61.328125 136.796875 66.890625 121.992188 75.390625 L 96.765625 41.675781 C 122.238281 25.996094 152.230469 16.945313 184.335938 16.945313 C 214.695313 16.945313 243.167969 25.03125 267.710938 39.167969 Z M 246.632813 75.371094 L 271.832031 41.632813 C 319.707031 71.066406 351.636719 123.925781 351.636719 184.246094 C 351.636719 270.914063 285.738281 342.1875 201.3125 350.695313 C 202.5625 348.015625 203.261719 345.03125 203.261719 341.878906 C 203.261719 337.761719 202.070313 333.925781 200.007813 330.691406 C 201.808594 329.671875 203.023438 327.742188 203.023438 325.523438 C 203.023438 322.304688 200.457031 319.683594 197.253906 319.59375 L 197.253906 309.015625 C 260.457031 302.546875 309.765625 249.15625 309.765625 184.246094 C 309.765625 137.648438 284.351563 96.996094 246.632813 75.371094 Z M 117.878906 77.859375 L 92.726563 44.246094 C 47.144531 74.136719 17.035156 125.671875 17.035156 184.246094 C 17.035156 269.515625 80.828125 339.878906 163.289063 350.230469 C 162.171875 347.675781 161.546875 344.847656 161.546875 341.878906 C 161.546875 337.839844 162.695313 334.070313 164.683594 330.878906 C 162.6875 329.921875 161.308594 327.886719 161.308594 325.523438 C 161.308594 322.292969 163.890625 319.667969 167.105469 319.59375 L 167.105469 308.488281 C 105.988281 300.089844 58.910156 247.667969 58.910156 184.246094 C 58.910156 139.382813 82.464844 100.03125 117.878906 77.859375 Z M 190.6875 107.695313 L 198.414063 110.023438 C 197.894531 112.1875 197.078125 114 195.957031 115.445313 C 194.84375 116.898438 193.460938 117.996094 191.804688 118.730469 C 190.152344 119.46875 188.046875 119.839844 185.492188 119.839844 C 182.386719 119.839844 179.855469 119.386719 177.886719 118.492188 C 175.921875 117.589844 174.230469 116.003906 172.800781 113.742188 C 171.375 111.476563 170.660156 108.570313 170.660156 105.039063 C 170.660156 100.328125 171.914063 96.703125 174.421875 94.167969 C 176.9375 91.640625 180.488281 90.371094 185.082031 90.371094 C 188.671875 90.371094 191.5 91.097656 193.554688 92.550781 C 195.605469 94.003906 197.140625 96.234375 198.136719 99.246094 L 190.371094 100.964844 C 190.097656 100.101563 189.8125 99.472656 189.515625 99.074219 C 189.015625 98.402344 188.410156 97.886719 187.703125 97.527344 C 186.984375 97.160156 186.1875 96.984375 185.304688 96.984375 C 183.300781 96.984375 181.769531 97.785156 180.707031 99.386719 C 179.902344 100.574219 179.5 102.445313 179.5 104.988281 C 179.5 108.144531 179.976563 110.300781 180.9375 111.476563 C 181.902344 112.644531 183.25 113.230469 184.988281 113.230469 C 186.671875 113.230469 187.949219 112.757813 188.808594 111.808594 C 189.671875 110.867188 190.296875 109.492188 190.6875 107.695313 Z M 92.808594 174.3125 L 101.035156 174.3125 L 111.726563 190.054688 L 111.726563 174.3125 L 120.046875 174.3125 L 120.046875 202.824219 L 111.726563 202.824219 L 101.09375 187.167969 L 101.09375 202.824219 L 92.808594 202.824219 Z M 134.140625 174.3125 L 147.234375 174.3125 C 149.808594 174.3125 151.902344 174.664063 153.488281 175.363281 C 155.074219 176.0625 156.390625 177.066406 157.429688 178.375 C 158.46875 179.6875 159.210938 181.210938 159.679688 182.949219 C 160.144531 184.6875 160.382813 186.523438 160.382813 188.46875 C 160.382813 191.515625 160.035156 193.878906 159.339844 195.558594 C 158.648438 197.234375 157.6875 198.644531 156.453125 199.777344 C 155.21875 200.914063 153.898438 201.671875 152.484375 202.046875 C 150.554688 202.566406 148.800781 202.824219 147.234375 202.824219 L 134.140625 202.824219 Z M 142.941406 180.765625 L 142.941406 196.332031 L 145.105469 196.332031 C 146.949219 196.332031 148.265625 196.132813 149.046875 195.722656 C 149.824219 195.316406 150.433594 194.601563 150.878906 193.585938 C 151.324219 192.566406 151.542969 190.917969 151.542969 188.636719 C 151.542969 185.617188 151.050781 183.550781 150.0625 182.4375 C 149.074219 181.320313 147.433594 180.765625 145.144531 180.765625 Z M 171.28125 193.394531 L 179.644531 192.871094 C 179.820313 194.222656 180.195313 195.261719 180.75 195.960938 C 181.660156 197.109375 182.953125 197.6875 184.640625 197.6875 C 185.894531 197.6875 186.863281 197.390625 187.539063 196.804688 C 188.222656 196.214844 188.5625 195.53125 188.5625 194.753906 C 188.5625 194.019531 188.242188 193.351563 187.601563 192.769531 C 186.957031 192.1875 185.453125 191.640625 183.101563 191.117188 C 179.238281 190.257813 176.492188 189.09375 174.84375 187.660156 C 173.191406 186.222656 172.355469 184.394531 172.355469 182.164063 C 172.355469 180.703125 172.785156 179.324219 173.628906 178.023438 C 174.480469 176.71875 175.753906 175.691406 177.460938 174.949219 C 179.164063 174.207031 181.5 173.835938 184.46875 173.835938 C 188.113281 173.835938 190.886719 174.515625 192.796875 175.871094 C 194.707031 177.226563 195.84375 179.382813 196.207031 182.34375 L 187.925781 182.835938 C 187.707031 181.539063 187.238281 180.597656 186.539063 180.015625 C 185.828125 179.425781 184.851563 179.132813 183.613281 179.132813 C 182.589844 179.132813 181.8125 179.351563 181.296875 179.78125 C 180.777344 180.214844 180.519531 180.746094 180.519531 181.367188 C 180.519531 181.820313 180.738281 182.21875 181.148438 182.589844 C 181.558594 182.960938 182.539063 183.308594 184.089844 183.636719 C 187.9375 184.457031 190.695313 185.3125 192.351563 186.160156 C 194.015625 187.007813 195.234375 188.058594 195.988281 189.320313 C 196.742188 190.574219 197.125 191.980469 197.125 193.539063 C 197.125 195.363281 196.621094 197.054688 195.609375 198.597656 C 194.601563 200.136719 193.1875 201.3125 191.371094 202.109375 C 189.558594 202.902344 187.273438 203.300781 184.515625 203.300781 C 179.667969 203.300781 176.3125 202.367188 174.445313 200.5 C 172.582031 198.636719 171.527344 196.269531 171.28125 193.394531 Z M 205.355469 174.3125 L 216.976563 174.3125 L 221.402344 191.660156 L 225.84375 174.3125 L 237.410156 174.3125 L 237.410156 202.824219 L 230.203125 202.824219 L 230.203125 181.089844 L 224.640625 202.824219 L 218.109375 202.824219 L 212.5625 181.089844 L 212.5625 202.824219 L 205.355469 202.824219 Z M 245.757813 174.3125 L 258.851563 174.3125 C 261.425781 174.3125 263.515625 174.664063 265.101563 175.363281 C 266.6875 176.066406 268.003906 177.066406 269.042969 178.375 C 270.078125 179.6875 270.828125 181.207031 271.292969 182.949219 C 271.765625 184.6875 271.996094 186.523438 271.996094 188.46875 C 271.996094 191.515625 271.652344 193.878906 270.957031 195.558594 C 270.265625 197.238281 269.304688 198.644531 268.070313 199.777344 C 266.835938 200.914063 265.515625 201.671875 264.101563 202.046875 C 262.167969 202.566406 260.417969 202.824219 258.851563 202.824219 L 245.757813 202.824219 Z M 254.554688 180.765625 L 254.554688 196.332031 L 256.71875 196.332031 C 258.566406 196.332031 259.878906 196.128906 260.664063 195.722656 C 261.4375 195.3125 262.050781 194.601563 262.492188 193.585938 C 262.9375 192.5625 263.15625 190.917969 263.15625 188.636719 C 263.15625 185.617188 262.667969 183.550781 261.679688 182.4375 C 260.6875 181.320313 259.050781 180.765625 256.761719 180.765625 Z M 171.289063 154.140625 L 179.652344 153.617188 C 179.832031 154.972656 180.203125 156.007813 180.761719 156.710938 C 181.667969 157.859375 182.964844 158.4375 184.648438 158.4375 C 185.902344 158.4375 186.871094 158.144531 187.550781 157.554688 C 188.234375 156.960938 188.570313 156.277344 188.570313 155.503906 C 188.570313 154.765625 188.253906 154.101563 187.609375 153.519531 C 186.964844 152.933594 185.464844 152.390625 183.109375 151.867188 C 179.246094 151.003906 176.5 149.847656 174.851563 148.40625 C 173.195313 146.972656 172.363281 145.144531 172.363281 142.914063 C 172.363281 141.453125 172.789063 140.070313 173.636719 138.769531 C 174.488281 137.464844 175.761719 136.441406 177.46875 135.699219 C 179.171875 134.957031 181.507813 134.582031 184.476563 134.582031 C 188.121094 134.582031 190.894531 135.261719 192.804688 136.621094 C 194.71875 137.976563 195.851563 140.132813 196.21875 143.089844 L 187.933594 143.582031 C 187.714844 142.289063 187.25 141.347656 186.546875 140.761719 C 185.835938 140.171875 184.863281 139.878906 183.621094 139.878906 C 182.597656 139.878906 181.820313 140.097656 181.304688 140.53125 C 180.785156 140.960938 180.527344 141.492188 180.527344 142.117188 C 180.527344 142.566406 180.738281 142.972656 181.15625 143.335938 C 181.5625 143.714844 182.546875 144.0625 184.097656 144.386719 C 187.949219 145.214844 190.703125 146.058594 192.359375 146.90625 C 194.027344 147.757813 195.242188 148.804688 195.996094 150.066406 C 196.753906 151.320313 197.132813 152.726563 197.132813 154.289063 C 197.132813 156.113281 196.628906 157.796875 195.621094 159.34375 C 194.605469 160.886719 193.195313 162.058594 191.378906 162.855469 C 189.566406 163.652344 187.285156 164.050781 184.523438 164.050781 C 179.679688 164.050781 176.320313 163.113281 174.453125 161.25 C 172.589844 159.386719 171.535156 157.015625 171.289063 154.140625 Z M 168.308594 219.898438 L 179.929688 219.898438 L 184.355469 237.246094 L 188.796875 219.898438 L 200.363281 219.898438 L 200.363281 248.410156 L 193.15625 248.410156 L 193.15625 226.675781 L 187.59375 248.410156 L 181.066406 248.410156 L 175.515625 226.675781 L 175.515625 248.410156 L 168.308594 248.410156 Z M 173.902344 262.117188 L 182.699219 262.117188 L 182.699219 283.621094 L 196.480469 283.621094 L 196.480469 290.628906 L 173.902344 290.628906 Z M 103.128906 169.289063 L 160.882813 169.289063 L 160.882813 98.320313 C 157 95.507813 151.589844 90.320313 149.417969 87.207031 C 145.09375 81.03125 152.941406 73.558594 159.511719 77.5 C 161.253906 78.546875 163.65625 80.375 165.957031 82.425781 C 164.996094 80.054688 164.460938 77.4375 164.460938 74.679688 C 164.460938 71.667969 165.097656 68.816406 166.234375 66.28125 C 110.191406 74.808594 66.964844 122.328125 65.078125 180.296875 C 68.144531 175.214844 74.03125 171.78125 80.789063 171.78125 C 83.117188 171.78125 85.34375 172.1875 87.386719 172.933594 C 85.730469 171.015625 84.289063 169.082031 83.425781 167.636719 C 79.742188 161.503906 86.71875 154.175781 92.488281 158.210938 C 95.496094 160.3125 100.578125 165.644531 103.128906 169.289063 Z M 203.476563 169.289063 L 265.542969 169.289063 C 268.09375 165.644531 273.179688 160.3125 276.183594 158.210938 C 281.957031 154.175781 288.933594 161.503906 285.25 167.636719 C 284.382813 169.082031 282.941406 171.015625 281.289063 172.933594 C 283.332031 172.1875 285.558594 171.78125 287.886719 171.78125 C 294.644531 171.78125 300.527344 175.214844 303.59375 180.292969 C 301.65625 120.753906 256.101563 72.246094 197.84375 65.679688 C 199.15625 68.367188 199.898438 71.429688 199.898438 74.679688 C 199.898438 77.171875 199.460938 79.554688 198.664063 81.742188 C 200.71875 79.972656 202.789063 78.429688 204.332031 77.5 C 210.902344 73.558594 218.75 81.03125 214.429688 87.207031 C 212.347656 90.183594 207.308594 95.0625 203.476563 97.9375 Z M 302.953125 197.339844 C 299.75 201.875 294.199219 204.875 287.886719 204.875 C 285.3125 204.875 282.863281 204.375 280.652344 203.476563 C 282.566406 205.625 284.273438 207.871094 285.25 209.5 C 288.933594 215.632813 281.957031 222.960938 276.183594 218.925781 C 273.179688 216.828125 268.097656 211.492188 265.542969 207.847656 L 203.476563 207.847656 L 203.476563 287.625 C 207.96875 290.789063 211.730469 294.929688 214.464844 299.734375 C 261.691406 287.449219 297.535156 246.96875 302.953125 197.339844 Z M 160.882813 207.847656 L 103.128906 207.847656 C 100.578125 211.492188 95.496094 216.828125 92.488281 218.925781 C 86.71875 222.960938 79.742188 215.632813 83.425781 209.5 C 84.402344 207.871094 86.105469 205.625 88.023438 203.476563 C 85.808594 204.375 83.363281 204.875 80.789063 204.875 C 74.476563 204.875 68.925781 201.878906 65.722656 197.34375 C 70.992188 245.605469 105.042969 285.214844 150.34375 298.65625 C 153.050781 294.269531 156.648438 290.484375 160.882813 287.550781 Z M 69.929688 188.328125 C 69.929688 184.378906 73.128906 181.179688 77.078125 181.179688 C 81.023438 181.179688 84.226563 184.378906 84.226563 188.328125 C 84.226563 192.277344 81.023438 195.476563 77.078125 195.476563 C 73.128906 195.476563 69.929688 192.277344 69.929688 188.328125 Z M 298.742188 188.328125 C 298.742188 184.382813 295.542969 181.179688 291.597656 181.179688 C 287.648438 181.179688 284.449219 184.382813 284.449219 188.328125 C 284.449219 192.277344 287.648438 195.476563 291.597656 195.476563 C 295.542969 195.476563 298.742188 192.277344 298.742188 188.328125 Z M 187.226563 64.953125 L 187.300781 65.019531 C 187.371094 65.085938 187.445313 65.152344 187.515625 65.21875 L 187.523438 65.230469 C 187.59375 65.296875 187.660156 65.367188 187.726563 65.4375 L 187.796875 65.507813 L 187.929688 65.65625 L 187.992188 65.726563 L 187.996094 65.730469 L 188.058594 65.808594 L 188.0625 65.8125 L 188.113281 65.875 L 188.125 65.886719 L 188.183594 65.960938 L 188.234375 66.023438 L 188.375 66.210938 L 188.460938 66.332031 L 188.496094 66.382813 L 188.539063 66.445313 L 188.59375 66.53125 L 188.597656 66.535156 L 188.648438 66.609375 L 188.648438 66.613281 L 188.703125 66.699219 L 188.746094 66.773438 L 188.753906 66.785156 L 188.804688 66.871094 L 188.808594 66.878906 L 188.855469 66.957031 L 188.902344 67.046875 L 188.933594 67.105469 L 188.972656 67.179688 L 188.996094 67.222656 L 189.042969 67.3125 L 189.054688 67.34375 L 189.085938 67.402344 L 189.164063 67.574219 L 189.21875 67.699219 L 189.246094 67.765625 L 189.292969 67.882813 L 189.3125 67.925781 L 189.367188 68.074219 L 189.371094 68.078125 C 189.390625 68.136719 189.410156 68.191406 189.429688 68.25 L 189.429688 68.253906 L 189.433594 68.265625 L 189.484375 68.410156 L 189.488281 68.429688 L 189.492188 68.441406 L 189.535156 68.585938 L 189.546875 68.628906 L 189.585938 68.761719 L 189.597656 68.8125 L 189.636719 68.972656 L 189.640625 68.984375 L 189.675781 69.160156 L 189.679688 69.171875 C 189.691406 69.226563 189.703125 69.285156 189.710938 69.339844 L 189.714844 69.351563 L 189.71875 69.375 C 189.726563 69.429688 189.738281 69.484375 189.746094 69.539063 L 189.746094 69.546875 C 189.753906 69.605469 189.761719 69.664063 189.769531 69.722656 L 189.773438 69.734375 L 189.792969 69.910156 L 189.792969 69.9375 C 189.800781 69.988281 189.804688 70.042969 189.808594 70.097656 L 189.8125 70.132813 C 189.816406 70.191406 189.820313 70.25 189.824219 70.304688 L 189.824219 70.324219 L 189.832031 70.492188 L 189.832031 70.527344 C 189.832031 70.585938 189.832031 70.644531 189.832031 70.707031 C 189.832031 74.933594 186.40625 78.359375 182.179688 78.359375 C 177.953125 78.359375 174.527344 74.933594 174.527344 70.707031 C 174.527344 70.644531 174.527344 70.585938 174.53125 70.527344 L 174.53125 70.503906 C 174.53125 70.378906 174.539063 70.253906 174.546875 70.132813 L 174.550781 70.117188 L 174.550781 70.097656 C 174.558594 69.980469 174.574219 69.859375 174.585938 69.742188 L 174.589844 69.722656 L 174.613281 69.5625 L 174.617188 69.523438 L 174.644531 69.363281 L 174.652344 69.335938 L 174.683594 69.171875 L 174.6875 69.152344 L 174.722656 68.992188 L 174.726563 68.960938 L 174.765625 68.804688 L 174.773438 68.777344 L 174.8125 68.628906 L 174.824219 68.585938 L 174.867188 68.449219 L 174.871094 68.429688 L 174.875 68.414063 L 174.925781 68.265625 L 174.933594 68.234375 L 174.988281 68.082031 L 174.992188 68.074219 L 174.992188 68.070313 C 175.011719 68.019531 175.03125 67.972656 175.050781 67.921875 L 175.058594 67.902344 L 175.058594 67.898438 L 175.070313 67.871094 L 175.113281 67.765625 L 175.140625 67.699219 L 175.199219 67.566406 L 175.203125 67.558594 L 175.210938 67.546875 L 175.277344 67.402344 L 175.28125 67.390625 L 175.292969 67.371094 L 175.351563 67.25 L 175.375 67.203125 L 175.378906 67.199219 L 175.421875 67.113281 L 175.433594 67.09375 L 175.464844 67.039063 L 175.527344 66.925781 L 175.554688 66.875 L 175.628906 66.753906 L 175.644531 66.722656 L 175.722656 66.601563 L 175.75 66.558594 L 175.808594 66.46875 L 175.863281 66.386719 L 175.867188 66.378906 L 175.921875 66.300781 L 175.960938 66.246094 L 176.078125 66.089844 L 176.089844 66.070313 L 176.148438 65.996094 L 176.160156 65.980469 L 176.179688 65.960938 L 176.269531 65.847656 L 176.277344 65.839844 L 176.296875 65.8125 L 176.375 65.722656 L 176.390625 65.703125 L 176.394531 65.699219 L 176.476563 65.605469 L 176.5625 65.507813 L 176.597656 65.472656 L 176.679688 65.386719 L 176.859375 65.207031 C 178.238281 63.875 180.113281 63.054688 182.179688 63.054688 C 184.113281 63.054688 185.878906 63.769531 187.226563 64.953125 Z M 187.226563 64.953125 "/>
</g>
</svg>